<svg width="43" height="41" viewBox="0 0 43 41" fill="none" xmlns="http://www.w3.org/2000/svg">
<g filter="url(#filter0_d_309_484)">
<path d="M39 10.875C39 7.009 35.866 3.875 32 3.875C30.833 3.875 29.735 4.165 28.768 4.669C26.686 1.842 23.343 0 19.563 0C14.431 0 10.088 3.38 8.64 8.036C5.982 8.653 4 11.03 4 13.875C4 16.854 6.174 19.32 9.021 19.788C9.237 23.737 12.498 26.875 16.5 26.875C18.676 26.875 20.63 25.942 22 24.462C23.37 25.942 25.323 26.875 27.5 26.875C31.643 26.875 35 23.518 35 19.375C35 18.665 34.895 17.981 34.711 17.33C37.23 16.271 39 13.78 39 10.875Z" fill="#85C8F8"/>
<path d="M8 32.875C9.65685 32.875 11 31.5319 11 29.875C11 28.2181 9.65685 26.875 8 26.875C6.34315 26.875 5 28.2181 5 29.875C5 31.5319 6.34315 32.875 8 32.875Z" fill="#85C8F8"/>
</g>
<defs>
<filter id="filter0_d_309_484" x="0" y="0" width="43" height="40.875" filterUnits="userSpaceOnUse" color-interpolation-filters="sRGB">
<feFlood flood-opacity="0" result="BackgroundImageFix"/>
<feColorMatrix in="SourceAlpha" type="matrix" values="0 0 0 0 0 0 0 0 0 0 0 0 0 0 0 0 0 0 127 0" result="hardAlpha"/>
<feOffset dy="4"/>
<feGaussianBlur stdDeviation="2"/>
<feComposite in2="hardAlpha" operator="out"/>
<feColorMatrix type="matrix" values="0 0 0 0 0 0 0 0 0 0 0 0 0 0 0 0 0 0 0.25 0"/>
<feBlend mode="normal" in2="BackgroundImageFix" result="effect1_dropShadow_309_484"/>
<feBlend mode="normal" in="SourceGraphic" in2="effect1_dropShadow_309_484" result="shape"/>
</filter>
</defs>
</svg>
